<svg width="90" height="40" viewBox="0 0 90 40" fill="none" xmlns="http://www.w3.org/2000/svg">
<g clip-path="url(#clip0_901_46348)">
<mask id="mask0_901_46348" style="mask-type:luminance" maskUnits="userSpaceOnUse" x="0" y="0" width="90" height="40">
<path d="M90 0.5H0V39.5H90V0.5Z" fill="white"/>
</mask>
<g mask="url(#mask0_901_46348)">
<path d="M30.894 13.8476C30.7934 15.3699 30.2353 16.7984 29.2575 17.9662C28.8877 18.407 28.442 18.6954 28.0531 19.0624C27.7774 19.3218 28.487 19.4164 28.7971 19.5925C29.6606 20.0842 30.4975 20.7976 31.1248 21.5693C31.3296 21.8229 31.4515 22.1958 31.5853 22.3654C31.6746 22.4783 31.6812 22.457 31.825 22.4381C32.0978 21.7213 32.4576 21.0238 32.8145 20.3466C34.9345 16.3202 36.9716 11.9499 39.2289 8.04053C41.5767 3.97515 46.8276 3.47222 49.3381 7.61738C53.374 14.2778 56.3953 22.0339 60.3825 28.7787C62.3682 32.6786 57.8447 36.7411 54.1771 34.2608C52.7205 33.275 52.7815 31.3176 50.7799 31.1404C46.6447 30.7733 41.9372 31.4016 37.7428 31.1734C36.3644 31.4028 36.2123 32.5764 35.4891 33.4576C33.6448 35.7063 30.1423 35.4102 28.603 32.9931C26.5605 33.8914 24.3452 34.6094 22.0939 34.7489C17.6456 35.0231 12.9185 34.5308 8.44127 34.7477C6.23487 34.5746 4.59192 32.9405 4.41792 30.7438C3.87225 23.8399 4.83872 16.2357 4.41792 9.25856C4.58304 7.15937 6.06679 5.46857 8.20808 5.25345C14.7604 5.66182 30.2311 2.80264 30.894 12.8038C30.8046 13.1443 30.804 13.5066 30.894 13.8476Z" fill="#FFCC01"/>
<path fill-rule="evenodd" clip-rule="evenodd" d="M84.1187 4.79581C79.8149 4.2202 75.0357 9.50659 69.6233 9.18857C65.748 8.96107 57.3899 2.0696 55.3824 6.02565C54.0378 8.67622 60.2503 16.0062 59.755 20.5763C59.3637 24.1842 52.789 32.76 56.4353 34.7233C59.5212 36.3851 65.1188 30.2383 70.9544 30.4812C73.681 30.5941 75.5228 31.9338 78.2169 33.2334C80.386 34.2801 83.8139 36.2374 85.2328 33.7895C86.7543 31.1638 80.6441 23.5932 80.95 19.2572C81.359 13.4543 88.2682 8.38959 84.1187 4.797V4.79581Z" fill="#FFCC01"/>
<path d="M58.1909 24.8203C58.8952 26.1666 59.6208 27.4915 60.3819 28.7786C61.8331 31.6296 59.8073 34.5662 57.1795 34.9711C56.9179 34.9285 56.6691 34.8489 56.4353 34.7231C53.8762 33.3449 56.3521 28.7095 58.1909 24.8203Z" fill="white"/>
<path d="M30.894 13.8476C30.7934 15.3699 30.2353 16.7984 29.2575 17.9662C28.8877 18.407 28.442 18.6954 28.0531 19.0624C27.7774 19.3218 28.487 19.4164 28.7971 19.5925C29.6606 20.0842 30.4975 20.7976 31.1248 21.5693C31.3296 21.8229 31.4515 22.1958 31.5853 22.3654C31.6746 22.4783 31.6812 22.457 31.825 22.4381C32.0978 21.7213 32.4576 21.0238 32.8145 20.3466C34.9345 16.3202 36.9716 11.9499 39.2289 8.04053C41.5767 3.97515 46.8276 3.47222 49.3381 7.61738C53.374 14.2778 56.3953 22.0339 60.3825 28.7787C62.3682 32.6786 57.8447 36.7411 54.1771 34.2608C52.7205 33.275 52.7815 31.3176 50.7799 31.1404C46.6447 30.7733 41.9372 31.4016 37.7428 31.1734C36.3644 31.4028 36.2123 32.5764 35.4891 33.4576C33.6448 35.7063 30.1423 35.4102 28.603 32.9931C26.5605 33.8914 24.3452 34.6094 22.0939 34.7489C17.6456 35.0231 12.9185 34.5308 8.44127 34.7477C6.23487 34.5746 4.59192 32.9405 4.41792 30.7438C3.87225 23.8399 4.83872 16.2357 4.41792 9.25856C4.58304 7.15937 6.06679 5.46857 8.20808 5.25345C14.7604 5.66182 30.2311 2.80264 30.894 12.8038C30.8046 13.1443 30.804 13.5066 30.894 13.8476Z" fill="#143244"/>
<path fill-rule="evenodd" clip-rule="evenodd" d="M84.1187 4.79581C79.8149 4.2202 75.0357 9.50659 69.6233 9.18857C65.748 8.96107 57.3899 2.0696 55.3824 6.02565C54.0378 8.67622 60.2503 16.0062 59.755 20.5763C59.3637 24.1842 52.789 32.76 56.4353 34.7233C59.5212 36.3851 65.1188 30.2383 70.9544 30.4812C73.681 30.5941 75.5228 31.9338 78.2169 33.2334C80.386 34.2801 83.8139 36.2374 85.2328 33.7895C86.7543 31.1638 80.6441 23.5932 80.95 19.2572C81.359 13.4543 88.2682 8.38959 84.1187 4.797V4.79581Z" fill="#8DE2D6"/>
<path d="M58.1909 24.8203C58.8952 26.1666 59.6208 27.4915 60.3819 28.7786C61.8331 31.6296 59.8073 34.5662 57.1795 34.9711C56.9179 34.9285 56.6691 34.8489 56.4353 34.7231C53.8762 33.3449 56.3521 28.7095 58.1909 24.8203Z" fill="#FFCC01"/>
<path d="M60.3825 28.7787C56.3953 22.0339 53.374 14.2778 49.3381 7.61738C46.8276 3.47222 41.5767 3.97515 39.2289 8.04053C36.9716 11.9499 34.9345 16.3202 32.8145 20.3466C32.4576 21.0238 32.0978 21.7213 31.825 22.4381C31.6812 22.457 31.6746 22.4783 31.5853 22.3654C31.4515 22.1958 31.3296 21.8229 31.1248 21.5693C30.4975 20.7976 29.6606 20.0842 28.7971 19.5925C28.487 19.4164 27.7774 19.3218 28.0531 19.0624C28.442 18.6954 28.8877 18.407 29.2575 17.9662C30.2353 16.7984 30.7934 15.3699 30.894 13.8476C30.804 13.5066 30.8046 13.1443 30.894 12.8038C30.2311 2.80264 14.7604 5.66182 8.20808 5.25345C6.06679 5.46857 4.58304 7.15937 4.41792 9.25856C4.83872 16.2357 3.87225 23.8399 4.41792 30.7438C4.59192 32.9405 6.23487 34.5746 8.44127 34.7477C12.9185 34.5308 17.6456 35.0231 22.0939 34.7489C24.3452 34.6094 26.5605 33.8914 28.603 32.9931C30.1423 35.4102 33.6448 35.7063 35.4891 33.4576C36.2123 32.5764 36.3644 31.4028 37.7428 31.1734C41.9372 31.4016 46.6447 30.7733 50.7799 31.1404C52.7815 31.3176 52.7205 33.275 54.1771 34.2608C57.8447 36.7411 62.3682 32.6786 60.3825 28.7787ZM60.3825 28.7787C59.6214 27.4916 58.8958 26.1667 58.1915 24.8204C56.3526 28.7096 53.8768 33.345 56.4359 34.7232M60.3825 28.7787C61.8337 31.6297 59.8078 34.5663 57.18 34.9712C56.9184 34.9286 56.6697 34.849 56.4359 34.7232M56.4359 34.7232C52.7895 32.7599 59.3643 24.1841 59.7555 20.5762C60.2509 16.0061 54.0383 8.67609 55.383 6.02552C57.3905 2.06947 65.7485 8.96094 69.6239 9.18844C75.0363 9.50646 79.8154 4.22007 84.1193 4.79568V4.79687C88.2687 8.38947 81.3595 13.4542 80.9505 19.2571C80.6446 23.5931 86.7549 31.1637 85.2334 33.7894C83.8145 36.2372 80.3865 34.2799 78.2174 33.2333C75.5234 31.9337 73.6816 30.5939 70.9549 30.4811C65.1194 30.2382 59.5217 36.385 56.4359 34.7232Z" stroke="white" stroke-width="10" stroke-linejoin="round"/>
<path d="M30.894 13.8476C30.7934 15.3699 30.2353 16.7984 29.2575 17.9662C28.8877 18.407 28.442 18.6954 28.0531 19.0624C27.7774 19.3218 28.487 19.4164 28.7971 19.5925C29.6606 20.0842 30.4975 20.7976 31.1248 21.5693C31.3296 21.8229 31.4515 22.1958 31.5853 22.3654C31.6746 22.4783 31.6812 22.457 31.825 22.4381C32.0978 21.7213 32.4576 21.0238 32.8145 20.3466C34.9345 16.3202 36.9716 11.9499 39.2289 8.04053C41.5767 3.97515 46.8276 3.47222 49.3381 7.61738C53.374 14.2778 56.3953 22.0339 60.3825 28.7787C62.3682 32.6786 57.8447 36.7411 54.1771 34.2608C52.7205 33.275 52.7815 31.3176 50.7799 31.1404C46.6447 30.7733 41.9372 31.4016 37.7428 31.1734C36.3644 31.4028 36.2123 32.5764 35.4891 33.4576C33.6448 35.7063 30.1423 35.4102 28.603 32.9931C26.5605 33.8914 24.3452 34.6094 22.0939 34.7489C17.6456 35.0231 12.9185 34.5308 8.44127 34.7477C6.23487 34.5746 4.59192 32.9405 4.41792 30.7438C3.87225 23.8399 4.83872 16.2357 4.41792 9.25856C4.58304 7.15937 6.06679 5.46857 8.20808 5.25345C14.7604 5.66182 30.2311 2.80264 30.894 12.8038C30.8046 13.1443 30.804 13.5066 30.894 13.8476Z" fill="white"/>
<path fill-rule="evenodd" clip-rule="evenodd" d="M84.1187 4.79581C79.8149 4.2202 75.0357 9.50659 69.6233 9.18857C65.748 8.96107 57.3899 2.0696 55.3824 6.02565C54.0378 8.67622 60.2503 16.0062 59.755 20.5763C59.3637 24.1842 52.789 32.76 56.4353 34.7233C59.5212 36.3851 65.1188 30.2383 70.9544 30.4812C73.681 30.5941 75.5228 31.9338 78.2169 33.2334C80.386 34.2801 83.8139 36.2374 85.2328 33.7895C86.7543 31.1638 80.6441 23.5932 80.95 19.2572C81.359 13.4543 88.2682 8.38959 84.1187 4.797V4.79581Z" fill="white"/>
<path d="M58.1909 24.8203C58.8952 26.1666 59.6208 27.4915 60.3819 28.7786C61.8331 31.6296 59.8073 34.5662 57.1795 34.9711C56.9179 34.9285 56.6691 34.8489 56.4353 34.7231C53.8762 33.3449 56.3521 28.7095 58.1909 24.8203Z" fill="white"/>
<path d="M44.2473 5.17305C45.9491 5.07045 47.6857 5.84289 48.8623 7.65775L48.9743 7.83658C50.9804 11.1475 52.7362 14.7346 54.4956 18.3517C55.5501 20.5196 56.6077 22.698 57.7169 24.8271C57.3856 25.5244 57.034 26.2526 56.6945 26.9839C56.5209 27.3579 56.3509 27.7308 56.1913 28.0975C56.164 28.1601 56.1376 28.2229 56.1108 28.2855C56.0812 28.3546 56.0519 28.4236 56.0229 28.4924C55.9133 28.7528 55.8077 29.0123 55.7087 29.2699C55.6621 29.3909 55.6177 29.5114 55.5743 29.6309C55.5612 29.6671 55.5483 29.7033 55.5354 29.7393C55.4316 30.0304 55.3371 30.3158 55.256 30.5946C55.2476 30.6231 55.2408 30.6523 55.2328 30.6807C55.226 30.7046 55.2186 30.7281 55.212 30.752C55.1772 30.8776 55.1463 31.0029 55.1166 31.127C55.108 31.1637 55.0984 31.1999 55.0901 31.2363C55.0848 31.2601 55.0795 31.2838 55.0743 31.3075C55.0529 31.4061 55.0338 31.5039 55.0163 31.6006C55.0146 31.6106 55.0123 31.6205 55.0105 31.6304C54.9926 31.7321 54.9764 31.8325 54.9633 31.9318C54.9614 31.9455 54.9601 31.9594 54.9583 31.9732C54.9507 32.0329 54.9441 32.0924 54.9384 32.1512C54.9364 32.1719 54.9352 32.1926 54.9334 32.2133C54.9301 32.2519 54.9268 32.2902 54.9243 32.3283C54.9124 32.5118 54.91 32.6924 54.9193 32.869C54.9205 32.8906 54.9228 32.9121 54.9243 32.9336C54.929 33.0017 54.9359 33.0689 54.9442 33.1356C54.9469 33.1574 54.9477 33.1794 54.9508 33.201C54.9523 33.2117 54.9542 33.2227 54.9558 33.2333C54.958 33.2477 54.9609 33.262 54.9633 33.2764C54.9708 33.3216 54.9796 33.3662 54.9889 33.4105C54.9926 33.4276 54.9958 33.4448 54.9997 33.4619C55.0148 33.5274 55.0318 33.5921 55.0512 33.6556C55.0524 33.6598 55.054 33.6638 55.0553 33.668C55.0709 33.7184 55.0883 33.768 55.1067 33.817C55.1113 33.8292 55.1152 33.8421 55.1199 33.8542C55.1221 33.8599 55.1252 33.8653 55.1274 33.8709C55.1457 33.9166 55.1654 33.9615 55.1863 34.0058C55.1942 34.0226 55.2013 34.0398 55.2095 34.0563C55.2319 34.1014 55.2565 34.1453 55.2817 34.1888C55.2956 34.2128 55.31 34.2365 55.3248 34.26C55.3566 34.3106 55.3892 34.3607 55.4251 34.409C55.1378 34.315 54.851 34.1835 54.5694 34.0099L54.4144 33.9098C53.7783 33.4793 53.4951 32.8614 53.0371 32.1644C52.8193 31.8329 52.5617 31.4925 52.2047 31.2247C51.8855 30.9854 51.5027 30.8156 51.0265 30.7428L50.8167 30.718C48.7187 30.5318 46.4826 30.5982 44.2671 30.6807C42.0415 30.7637 39.8382 30.863 37.7649 30.7503L37.7184 30.7478L37.672 30.7553C36.8391 30.8939 36.3668 31.3323 36.0212 31.8291C35.8577 32.064 35.7147 32.3231 35.5842 32.5486C35.4825 32.7243 35.3837 32.8885 35.2741 33.0404L35.1597 33.1886C33.5069 35.204 30.3522 34.9497 28.9609 32.7656L28.7652 32.4584L28.4311 32.6049C26.5385 33.4373 24.5187 34.1027 22.4761 34.2939L22.0673 34.3254C19.8647 34.4612 17.5887 34.4078 15.2889 34.3461C13.0069 34.2849 10.7 34.2149 8.45255 34.3221C6.52644 34.1616 5.08984 32.7817 4.85899 30.8952L4.84074 30.7105C4.57006 27.2859 4.6734 23.6815 4.79431 20.0423C4.91451 16.4247 5.05106 12.7709 4.8424 9.26983C5.00073 7.37387 6.32718 5.88197 8.22122 5.67811C9.8788 5.77757 12.0889 5.67611 14.4324 5.62264C16.812 5.56834 19.3547 5.56286 21.7066 5.85197C24.0642 6.14183 26.185 6.72314 27.7479 7.81009C29.2761 8.87303 30.2945 10.4354 30.4642 12.7746C30.3817 13.1363 30.381 13.5152 30.4642 13.8782C30.3656 15.2022 29.9013 16.4446 29.0986 17.4856L28.931 17.6934C28.7701 17.8853 28.5892 18.0493 28.3887 18.2175C28.2927 18.2982 28.1874 18.3837 28.0804 18.4733L27.7611 18.754C27.6947 18.8165 27.6112 18.9161 27.5787 19.0571C27.5419 19.2169 27.586 19.3614 27.6574 19.4669C27.7202 19.5595 27.8009 19.6198 27.8573 19.6557C27.9175 19.6939 27.9815 19.7236 28.0372 19.7476C28.1446 19.7936 28.2753 19.8379 28.368 19.871C28.4763 19.9095 28.5451 19.9379 28.5861 19.9612C29.4026 20.4261 30.1987 21.1036 30.7934 21.8349C30.8632 21.9213 30.9271 22.0399 31.0006 22.1876C31.0454 22.2774 31.1066 22.4074 31.1772 22.5213L31.251 22.6272L31.2518 22.628C31.2753 22.6576 31.3125 22.704 31.3588 22.7448C31.4145 22.7938 31.4926 22.8438 31.5968 22.8657C31.686 22.8843 31.7632 22.8746 31.7933 22.8707C31.8104 22.8684 31.829 22.8658 31.8406 22.864C31.854 22.8619 31.8664 22.86 31.8796 22.8582L32.1308 22.8251L32.2211 22.5883C32.418 22.0709 32.6632 21.5611 32.9242 21.0524L33.1896 20.5441C35.191 16.7428 37.0898 12.6959 39.1761 8.98912L39.5957 8.25222C40.7042 6.33272 42.481 5.27959 44.2473 5.17305ZM80.9432 5.68225C82.0004 5.30162 82.9901 5.10256 83.9323 5.20038C84.7967 5.98824 85.0671 6.82262 85.0077 7.72812C84.9431 8.70408 84.4938 9.78726 83.866 11.0036C83.2574 12.1826 82.4573 13.5263 81.8172 14.8726C81.2077 16.1545 80.7015 17.5182 80.5519 18.942L80.5262 19.2268C80.443 20.4044 80.7946 21.7616 81.3056 23.1356C81.8192 24.5165 82.5165 25.9702 83.1629 27.3449C83.8149 28.7315 84.4128 30.032 84.7565 31.1452C84.9278 31.7003 85.0297 32.1905 85.0484 32.6073C85.0645 32.9723 85.017 33.261 84.9134 33.485L84.8651 33.5769C84.5664 34.0923 84.1791 34.3566 83.7359 34.472C83.2757 34.5917 82.7238 34.5585 82.1057 34.4098C81.1697 34.1846 80.1808 33.7231 79.275 33.2797L78.4018 32.8516C77.7359 32.5304 77.122 32.2067 76.5255 31.8953C75.9317 31.5854 75.3535 31.2866 74.7719 31.0251C73.6759 30.5326 72.5556 30.1651 71.2379 30.0722L70.9718 30.0573C67.9211 29.9303 64.9592 31.4711 62.4688 32.7572C61.554 33.2297 60.706 33.6653 59.9258 33.9942C60.2127 33.7012 60.4638 33.373 60.6695 33.0172C60.6779 33.0027 60.6861 32.9879 60.6944 32.9734C60.7323 32.9062 60.7692 32.8386 60.8039 32.7696C60.8177 32.7421 60.8303 32.7139 60.8437 32.686C60.8638 32.6438 60.8836 32.6014 60.9025 32.5585C60.9188 32.5218 60.9344 32.4848 60.9498 32.4476C60.9646 32.4116 60.979 32.3755 60.9929 32.3391C61.02 32.2684 61.0455 32.1969 61.0692 32.1247C61.0758 32.1043 61.0827 32.0839 61.0891 32.0634C61.1593 31.8383 61.2115 31.6066 61.2458 31.3696C61.2489 31.3478 61.2521 31.326 61.2549 31.3042C61.2655 31.2228 61.2737 31.1409 61.2797 31.0583C61.2822 31.025 61.2847 30.9916 61.2864 30.9581C61.2887 30.9125 61.2897 30.8666 61.2905 30.8206C61.2915 30.7742 61.292 30.7275 61.2914 30.6807C61.291 30.6479 61.2909 30.6151 61.2897 30.5822C61.2885 30.547 61.286 30.5116 61.2839 30.4763C61.2787 30.386 61.2708 30.2956 61.2599 30.2047C61.2576 30.1856 61.255 30.1666 61.2524 30.1476C61.2463 30.1018 61.2401 30.056 61.2325 30.0101C61.2203 29.9358 61.2071 29.8612 61.191 29.7865C61.1836 29.7517 61.1746 29.7171 61.1661 29.6822C61.1549 29.635 61.1425 29.5879 61.1297 29.5407C61.1193 29.5026 61.1088 29.4645 61.0974 29.4264C61.0937 29.4144 61.0911 29.402 61.0874 29.3899L61.0161 29.1764C61.0112 29.1627 61.0054 29.1494 61.0003 29.1358C60.9739 29.0643 60.9452 28.9929 60.9149 28.9213C60.9042 28.8959 60.893 28.8706 60.8818 28.8451C60.8733 28.826 60.8657 28.8064 60.8569 28.7872L60.7599 28.5869L60.7541 28.5744L60.7475 28.5628L60.2532 27.7117C60.204 27.6257 60.1547 27.5396 60.1057 27.4533C60.0252 27.3115 59.9459 27.1688 59.8661 27.0261C59.7213 26.7674 59.5775 26.5074 59.4349 26.2462C59.3489 26.0888 59.2632 25.9309 59.1778 25.7726C59.0054 25.4523 58.8337 25.1306 58.6638 24.8072C58.7583 24.6062 58.8531 24.4072 58.9441 24.2086C59.5165 22.9582 60.0057 21.7616 60.1521 20.809L60.177 20.6219C60.3112 19.3832 59.9899 17.995 59.4913 16.6046C58.9906 15.2085 58.292 13.7598 57.6323 12.3962C56.9669 11.0207 56.3452 9.73936 55.9698 8.63805C55.7827 8.08896 55.6635 7.6031 55.6274 7.18747C55.5957 6.82332 55.63 6.53493 55.7195 6.30983L55.7609 6.21711C55.9703 5.80447 56.2499 5.55102 56.5835 5.40323C56.926 5.25148 57.3556 5.19797 57.8744 5.24095C58.9229 5.32784 60.2198 5.79765 61.6296 6.42492C62.3289 6.73601 63.0443 7.08035 63.759 7.42592C64.4714 7.77038 65.1842 8.11699 65.87 8.42775C67.1405 9.00353 68.3763 9.48527 69.3972 9.59438L69.5979 9.61176C72.4361 9.77853 75.0858 8.47458 77.4774 7.27358C78.6899 6.66468 79.8347 6.08138 80.9432 5.68225ZM58.2102 25.7644C58.2966 25.9264 58.3834 26.0881 58.4706 26.2495C58.5369 26.3724 58.6037 26.4948 58.6704 26.6171C58.8254 26.9013 58.982 27.1841 59.1397 27.4658C59.2187 27.607 59.2971 27.7484 59.3768 27.8889C59.4164 27.9585 59.4557 28.0281 59.4955 28.0975C59.6647 28.3934 59.8352 28.6878 60.0079 28.9801C60.5439 30.0394 60.5461 31.1153 60.1961 32.0385C60.1818 32.0763 60.1677 32.114 60.1521 32.1512C60.0847 32.3132 60.0057 32.4697 59.9174 32.6207C59.8987 32.6527 59.8791 32.6843 59.8594 32.7159C59.8238 32.7731 59.7869 32.8294 59.7483 32.8848C59.7385 32.8987 59.7293 32.9131 59.7193 32.927C59.6636 33.0048 59.6046 33.0802 59.5435 33.1539C59.537 33.1617 59.5302 33.1692 59.5236 33.177C59.4654 33.2462 59.4048 33.3131 59.342 33.3782C58.7647 33.9758 58.0057 34.3963 57.1771 34.5382C57.0383 34.511 56.9062 34.4727 56.7808 34.419L56.6365 34.3502L56.6299 34.3461C56.5745 34.3161 56.5231 34.2834 56.474 34.25C56.4618 34.2418 56.4502 34.2329 56.4383 34.2244C56.3966 34.1943 56.357 34.1634 56.3197 34.1308C56.3123 34.1244 56.3046 34.1183 56.2974 34.1118C56.2533 34.0716 56.2125 34.0297 56.1746 33.9859C56.1663 33.9762 56.1587 33.966 56.1506 33.9562C56.1227 33.9221 56.0963 33.8871 56.0718 33.8509C55.9906 33.7312 55.9267 33.5994 55.8786 33.4544C55.8641 33.4107 55.8506 33.3658 55.8388 33.3194C55.8353 33.3052 55.8314 33.2909 55.828 33.2764C55.7992 33.1516 55.7807 33.0174 55.7708 32.874C55.7642 32.7763 55.7622 32.6751 55.7642 32.5701C55.7656 32.5039 55.7678 32.436 55.7725 32.3665C55.8011 31.9482 55.8912 31.4793 56.0337 30.9664C56.0879 30.7712 56.15 30.5714 56.2178 30.367C56.255 30.2544 56.2931 30.1403 56.3338 30.0258C56.4746 29.631 56.6372 29.2222 56.814 28.8029C57.0652 28.207 57.3441 27.5965 57.6323 26.9839C57.8243 26.576 58.0171 26.1682 58.2102 25.7644Z" stroke="white"/>
<path d="M30.894 13.8476C30.7934 15.3699 30.2353 16.7984 29.2575 17.9662C28.8877 18.407 28.442 18.6954 28.0531 19.0624C27.7774 19.3218 28.487 19.4164 28.7971 19.5925C29.6606 20.0842 30.4975 20.7976 31.1248 21.5693C31.3296 21.8229 31.4515 22.1958 31.5853 22.3654C31.6746 22.4783 31.6812 22.457 31.825 22.4381C32.0978 21.7213 32.4576 21.0238 32.8145 20.3466C34.9345 16.3202 36.9716 11.9499 39.2289 8.04053C41.5767 3.97515 46.8276 3.47222 49.3381 7.61738C53.374 14.2778 56.3953 22.0339 60.3825 28.7787C62.3682 32.6786 57.8447 36.7411 54.1771 34.2608C52.7205 33.275 52.7815 31.3176 50.7799 31.1404C46.6447 30.7733 41.9372 31.4016 37.7428 31.1734C36.3644 31.4028 36.2123 32.5764 35.4891 33.4576C33.6448 35.7063 30.1423 35.4102 28.603 32.9931C26.5605 33.8914 24.3452 34.6094 22.0939 34.7489C17.6456 35.0231 12.9185 34.5308 8.44127 34.7477C6.23487 34.5746 4.59192 32.9405 4.41792 30.7438C3.87225 23.8399 4.83872 16.2357 4.41792 9.25856C4.58304 7.15937 6.06679 5.46857 8.20808 5.25345C14.7604 5.66182 30.2311 2.80264 30.894 12.8038C30.8046 13.1443 30.804 13.5065 30.894 13.8476Z" fill="#143244"/>
<path fill-rule="evenodd" clip-rule="evenodd" d="M84.1187 4.79581C79.8149 4.2202 75.0357 9.50659 69.6233 9.18857C65.748 8.96107 57.3899 2.0696 55.3824 6.02565C54.0378 8.67622 60.2503 16.0062 59.755 20.5763C59.3637 24.1842 52.789 32.76 56.4353 34.7233C59.5212 36.3851 65.1188 30.2383 70.9544 30.4812C73.681 30.5941 75.5228 31.9338 78.2169 33.2334C80.386 34.2801 83.8139 36.2374 85.2328 33.7895C86.7543 31.1638 80.6441 23.5932 80.95 19.2572C81.359 13.4543 88.2682 8.38959 84.1187 4.797V4.79581Z" fill="url(#paint0_linear_901_46348)"/>
<path d="M58.1908 24.8203C58.8951 26.1666 59.6213 27.491 60.3824 28.7781C61.8336 31.629 59.8072 34.5662 57.1793 34.9711C56.9177 34.9285 56.6692 34.8481 56.4354 34.7222C53.8762 33.3441 56.3519 28.7095 58.1908 24.8203Z" fill="#FFCC01"/>
</g>
</g>
<defs>
<linearGradient id="paint0_linear_901_46348" x1="63.255" y1="47.9795" x2="75.9585" y2="14.0543" gradientUnits="userSpaceOnUse">
<stop stop-color="#0C66E4"/>
<stop offset="1" stop-color="#89E5D6"/>
</linearGradient>
<clipPath id="clip0_901_46348">
<rect width="90" height="39" fill="white" transform="translate(0 0.5)"/>
</clipPath>
</defs>
</svg>
